<?xml version="1.0" standalone="no"?>
<!DOCTYPE svg PUBLIC "-//W3C//DTD SVG 20010904//EN"
 "http://www.w3.org/TR/2001/REC-SVG-20010904/DTD/svg10.dtd">
<svg version="1.0" xmlns="http://www.w3.org/2000/svg"
 width="512.000000pt" height="512.000000pt" viewBox="0 0 512.000000 512.000000"
 preserveAspectRatio="xMidYMid meet">
<metadata>
Created by potrace 1.11, written by Peter Selinger 2001-2013
</metadata>
<g transform="translate(0.000000,512.000000) scale(0.100000,-0.100000)"
fill="#000000" stroke="none">
<path d="M2515 5104 c-38 -8 -108 -33 -154 -56 -118 -56 -241 -178 -299 -295
-104 -210 -94 -460 26 -658 44 -72 142 -173 206 -210 44 -25 46 -29 46 -70 0
-79 20 -145 56 -185 l34 -37 0 -116 c0 -167 -7 -161 206 -165 183 -4 205 -1
234 28 18 18 20 34 20 138 0 109 2 121 21 138 37 33 59 93 59 166 l0 67 58 39
c144 98 253 260 286 424 19 90 21 197 5 232 -16 35 -61 52 -98 36 -39 -16 -43
-28 -46 -135 -6 -200 -106 -364 -277 -455 -32 -17 -62 -40 -68 -50 -5 -10 -10
-59 -10 -108 0 -73 -3 -92 -18 -105 -10 -10 -26 -17 -35 -17 -28 0 -35 -31
-29 -137 l5 -103 -82 0 -82 0 2 111 c1 115 -3 128 -42 129 -31 0 -39 23 -39
112 0 48 -5 99 -12 113 -8 17 -34 38 -72 57 -34 17 -88 58 -122 92 -252 252
-181 667 141 827 155 76 297 74 465 -8 88 -42 96 -45 120 -31 37 20 55 63 40
97 -14 35 -93 83 -195 117 -101 33 -246 41 -350 18z"/>
<path d="M1703 5098 c-30 -15 -49 -62 -35 -92 11 -25 199 -146 226 -146 48 0
85 59 65 104 -10 22 -202 147 -224 145 -6 0 -20 -5 -32 -11z"/>
<path d="M3550 5097 c-59 -31 -166 -101 -182 -120 -10 -10 -18 -30 -18 -44 0
-28 41 -73 68 -73 19 0 173 89 212 122 30 26 27 81 -6 107 -31 24 -40 25 -74
8z"/>
<path d="M1520 4483 c-24 -31 -21 -79 6 -100 42 -31 260 -29 295 3 12 11 19
30 19 55 0 61 -21 69 -171 69 -127 0 -128 0 -149 -27z"/>
<path d="M3495 4485 c-30 -29 -32 -68 -5 -95 23 -23 17 -22 170 -20 133 2 150
10 150 71 0 60 -21 69 -168 69 -117 0 -124 -1 -147 -25z"/>
<path d="M847 4345 c-71 -26 -436 -255 -467 -293 -55 -66 -74 -171 -46 -250 8
-22 199 -347 425 -721 l411 -681 0 -94 0 -94 -32 -7 c-18 -4 -71 -25 -118 -47
-164 -78 -299 -249 -346 -437 -22 -88 -15 -262 14 -351 31 -94 88 -184 163
-259 80 -79 166 -132 274 -168 71 -23 99 -27 262 -31 l182 -4 25 25 c31 31 33
65 6 100 -19 24 -22 25 -197 29 -188 5 -225 13 -333 68 -61 31 -171 144 -204
207 -150 298 19 660 341 728 38 8 71 15 75 15 4 0 16 10 27 22 19 19 20 30 14
128 -7 123 4 183 51 280 40 84 131 177 213 219 216 108 437 69 611 -108 60
-61 79 -74 104 -74 34 0 78 40 78 72 0 26 -48 88 -114 149 l-58 52 21 33 c63
102 214 197 346 217 209 33 421 -76 523 -268 18 -33 39 -65 47 -72 19 -16 63
-9 150 26 59 23 85 27 170 28 110 1 171 -14 262 -65 69 -39 165 -144 202 -221
32 -69 54 -172 49 -233 l-3 -39 -71 -17 c-134 -33 -254 -111 -254 -165 0 -34
42 -74 78 -74 16 0 40 8 53 19 113 88 298 106 432 43 206 -96 333 -351 283
-566 -48 -206 -215 -364 -416 -396 -38 -6 -274 -10 -565 -10 l-500 -1 -52 -67
c-50 -64 -52 -67 -30 -75 12 -4 285 -7 607 -5 645 4 618 2 755 71 162 81 271
208 332 386 23 65 27 93 27 196 1 106 -2 130 -28 208 -65 200 -213 350 -411
419 l-80 27 -7 57 c-5 39 -3 65 6 87 7 18 162 280 345 582 l332 550 -3 413 -3
414 -24 19 c-13 10 -34 19 -47 19 -13 0 -182 -83 -376 -183 -306 -160 -357
-189 -381 -223 -15 -21 -160 -259 -322 -529 l-293 -489 -69 -22 -70 -21 -26
41 c-39 61 -138 156 -209 199 -101 61 -204 90 -328 91 -123 1 -185 -12 -295
-63 -97 -46 -190 -121 -247 -201 -23 -33 -49 -60 -57 -59 -9 0 -38 8 -66 17
l-50 17 -391 650 c-254 423 -406 666 -435 696 -71 72 -179 98 -272 64z m136
-150 c32 -15 47 -35 100 -126 l27 -46 -69 -42 c-72 -43 -111 -81 -111 -111 0
-10 9 -29 21 -44 31 -40 74 -35 161 18 40 25 75 43 79 41 10 -7 152 -245 148
-249 -2 -1 -51 -31 -109 -66 -118 -70 -150 -100 -150 -136 0 -32 42 -74 73
-74 13 0 76 32 141 70 65 39 122 70 126 70 12 0 152 -239 146 -249 -4 -5 -32
-24 -64 -41 -31 -18 -67 -42 -79 -53 -29 -26 -31 -79 -3 -107 32 -32 74 -25
157 25 42 26 77 45 78 43 7 -7 105 -168 105 -172 0 -2 -34 -12 -75 -21 -159
-35 -321 -147 -411 -282 -20 -30 -40 -51 -44 -46 -4 4 -175 287 -381 628 -334
554 -374 624 -374 662 0 34 6 48 30 71 27 26 358 231 395 245 27 10 51 7 83
-8z m3589 -177 l88 -52 0 -204 c0 -185 -2 -206 -21 -245 -28 -58 -563 -947
-569 -947 -3 0 -16 21 -30 47 -31 58 -111 146 -184 203 -58 44 -169 92 -256
111 -27 6 -50 12 -50 14 0 6 522 869 552 913 26 38 49 52 201 127 95 46 174
84 176 84 3 1 44 -22 93 -51z"/>
<path d="M1793 3951 c-50 -33 -96 -69 -102 -80 -23 -42 15 -101 64 -101 27 0
212 116 226 141 11 22 4 56 -19 82 -28 31 -71 21 -169 -42z"/>
<path d="M3351 3984 c-27 -35 -27 -66 2 -91 40 -37 191 -123 214 -123 34 0 63
34 63 73 0 40 -8 48 -117 116 -96 59 -131 64 -162 25z"/>
</g>
</svg>
